<?xml version="1.0" encoding="utf-8"?>
<!-- Generator: Adobe Illustrator 16.0.3, SVG Export Plug-In . SVG Version: 6.00 Build 0)  -->
<!DOCTYPE svg PUBLIC "-//W3C//DTD SVG 1.1//EN" "http://www.w3.org/Graphics/SVG/1.1/DTD/svg11.dtd">
<svg version="1.1" id="Layer_1" xmlns="http://www.w3.org/2000/svg" xmlns:xlink="http://www.w3.org/1999/xlink" x="0px" y="0px"
	 width="24px" height="24px" viewBox="0 0 24 24" enable-background="new 0 0 24 24" xml:space="preserve">
<path d="M12.549,20.443c0,0.303-0.246,0.547-0.549,0.547l0,0c-0.302,0-0.547-0.244-0.547-0.547V3.557
	c0-0.303,0.245-0.548,0.547-0.548l0,0c0.303,0,0.549,0.245,0.549,0.548V20.443z"/>
<g>
	<path d="M8.754,13.312c0,0.55-0.39,0.775-0.866,0.5L5.616,12.5c-0.477-0.275-0.477-0.725,0-1l2.271-1.312
		c0.477-0.275,0.866-0.05,0.866,0.5V13.312z"/>
</g>
<g>
	<path d="M15.248,10.689c0-0.55,0.39-0.775,0.866-0.5l2.27,1.311c0.477,0.275,0.477,0.725,0,1l-2.27,1.31
		c-0.477,0.275-0.866,0.05-0.866-0.5V10.689z"/>
</g>
</svg>
