<svg xmlns="http://www.w3.org/2000/svg" xmlns:xlink="http://www.w3.org/1999/xlink" viewBox="0 0 60 60" version="1.1" x="0px" y="0px"><g stroke="none" stroke-width="1" fill="none" fill-rule="evenodd"><path d="M40.5,9 C41.3284271,9 42,9.67157288 42,10.5 L42.0004728,12.0144892 C46.4619397,12.2735321 50,15.9735869 50,20.5 C50,25.1090673 46.331547,28.8613215 41.7551603,28.9962434 L41.728,28.996 L41.6626259,29.2763353 C40.8332812,32.6218233 38.5392947,35.3892585 35.5004309,36.8588765 L35.5007422,43.4836532 C39.2769334,44.7398012 42,48.3018974 42,52.5 C42,53.3284271 41.3284271,54 40.5,54 L20.5,54 C19.6715729,54 19,53.3284271 19,52.5 C19,48.3015282 21.7235456,44.7391746 25.5002542,43.4833218 L25.5005645,36.8593578 C22.4612062,35.3898628 20.1668094,32.6221886 19.3373741,29.2763353 L19.271,28.996 L19.2448397,28.9962434 C14.668453,28.8613215 11,25.1090673 11,20.5 C11,15.9732495 14.5385877,12.2729805 19.0005248,12.0144314 L19,10.5 C19,9.67157288 19.6715729,9 20.5,9 L40.5,9 Z M32.5,46 L28.5,46 C25.4264184,46 22.8510956,48.1333 22.1739318,51 L38.8260682,51 C38.1489044,48.1333 35.5735816,46 32.5,46 Z M32.5,38.5 L28.5,38.5 L28.5,42.5 L32.5,42.5 L32.5,38.5 Z M39,12 L22,12 L22,26.5 C22,31.1944204 25.8055796,35 30.5,35 C35.1944204,35 39,31.1944204 39,26.5 L39,12 Z M19,15.0224215 C16.19675,15.2750359 14,17.6309787 14,20.5 C14,23.3690213 16.19675,25.7249641 19,25.9775785 L19,15.0224215 Z M42,15.0224215 L42,25.9775785 C44.80325,25.7249641 47,23.3690213 47,20.5 C47,17.6309787 44.80325,15.2750359 42,15.0224215 Z" fill="#000000" fill-rule="nonzero"/></g></svg>